{
	"asset":{
		"generator":"Khronos glTF Blender I/O v5.0.21",
		"version":"2.0"
	},
	"scene":0,
	"scenes":[
		{
			"name":"Scene",
			"nodes":[
				0
			]
		}
	],
	"nodes":[
		{
			"mesh":0,
			"name":"Cube",
			"translation":[
				0.01623821258544922,
				0.019641876220703125,
				0
			]
		}
	],
	"materials":[
		{
			"doubleSided":true,
			"name":"Glass",
			"pbrMetallicRoughness":{
				"baseColorFactor":[
					0,
					0,
					0,
					1
				],
				"metallicFactor":0.4153846204280853,
				"roughnessFactor":0.1538461595773697
			}
		},
		{
			"doubleSided":true,
			"name":"body",
			"pbrMetallicRoughness":{
				"baseColorFactor":[
					1,
					0.18496645987033844,
					0.024576708674430847,
					1
				],
				"metallicFactor":0,
				"roughnessFactor":0.4769230782985687
			}
		}
	],
	"meshes":[
		{
			"name":"Cube",
			"primitives":[
				{
					"attributes":{
						"POSITION":0,
						"NORMAL":1,
						"TEXCOORD_0":2,
						"COLOR_0":3,
						"COLOR_1":4
					},
					"indices":5,
					"material":0
				},
				{
					"attributes":{
						"POSITION":6,
						"NORMAL":7,
						"TEXCOORD_0":8,
						"COLOR_0":9,
						"COLOR_1":10
					},
					"indices":11,
					"material":1
				}
			]
		}
	],
	"accessors":[
		{
			"bufferView":0,
			"componentType":5126,
			"count":469,
			"max":[
				1.0479987859725952,
				0.8425899744033813,
				0.8425899744033813
			],
			"min":[
				0.9858961701393127,
				-0.8425899744033813,
				-0.8425899744033813
			],
			"type":"VEC3"
		},
		{
			"bufferView":1,
			"componentType":5126,
			"count":469,
			"type":"VEC3"
		},
		{
			"bufferView":2,
			"componentType":5126,
			"count":469,
			"type":"VEC2"
		},
		{
			"bufferView":3,
			"componentType":5121,
			"count":469,
			"normalized":true,
			"type":"VEC4"
		},
		{
			"bufferView":4,
			"componentType":5123,
			"count":469,
			"normalized":true,
			"type":"VEC4"
		},
		{
			"bufferView":5,
			"componentType":5123,
			"count":2412,
			"type":"SCALAR"
		},
		{
			"bufferView":6,
			"componentType":5126,
			"count":294,
			"max":[
				1.0501149892807007,
				1,
				1
			],
			"min":[
				-1,
				-1,
				-1
			],
			"type":"VEC3"
		},
		{
			"bufferView":7,
			"componentType":5126,
			"count":294,
			"type":"VEC3"
		},
		{
			"bufferView":8,
			"componentType":5126,
			"count":294,
			"type":"VEC2"
		},
		{
			"bufferView":9,
			"componentType":5121,
			"count":294,
			"normalized":true,
			"type":"VEC4"
		},
		{
			"bufferView":10,
			"componentType":5123,
			"count":294,
			"normalized":true,
			"type":"VEC4"
		},
		{
			"bufferView":11,
			"componentType":5123,
			"count":1008,
			"type":"SCALAR"
		}
	],
	"bufferViews":[
		{
			"buffer":0,
			"byteLength":5628,
			"byteOffset":0,
			"target":34962
		},
		{
			"buffer":0,
			"byteLength":5628,
			"byteOffset":5628,
			"target":34962
		},
		{
			"buffer":0,
			"byteLength":3752,
			"byteOffset":11256,
			"target":34962
		},
		{
			"buffer":0,
			"byteLength":1876,
			"byteOffset":15008,
			"target":34962
		},
		{
			"buffer":0,
			"byteLength":3752,
			"byteOffset":16884,
			"target":34962
		},
		{
			"buffer":0,
			"byteLength":4824,
			"byteOffset":20636,
			"target":34963
		},
		{
			"buffer":0,
			"byteLength":3528,
			"byteOffset":25460,
			"target":34962
		},
		{
			"buffer":0,
			"byteLength":3528,
			"byteOffset":28988,
			"target":34962
		},
		{
			"buffer":0,
			"byteLength":2352,
			"byteOffset":32516,
			"target":34962
		},
		{
			"buffer":0,
			"byteLength":1176,
			"byteOffset":34868,
			"target":34962
		},
		{
			"buffer":0,
			"byteLength":2352,
			"byteOffset":36044,
			"target":34962
		},
		{
			"buffer":0,
			"byteLength":2016,
			"byteOffset":38396,
			"target":34963
		}
	],
	"buffers":[
		{
			"byteLength":40412,
			"uri":"pomoclock.bin"
		}
	]
}
